# xmcd CD database file
#
# Track frame offsets:
#	150
#	13181
#	35773
#	54963
#	76655
#	93700
#	110714
#	132820
#	146042
#	164793
#	183376
#	195867
#	210554
#	230374
#	248331
#	260463
#	279354
#	297510
#	313527
#
# Disc length: 4438 seconds
#
# Revision: 0
# Processed by: cddbd v1.5.2PL0 Copyright (c) Steve Scherf et al.
# Submitted via: CDex 1.51
#
DISCID=0d115413
DTITLE=Antti Sarpila Swing Band featuring Johanna Iivanainen - Jazz Sir, That's Our Baby!
DYEAR=2009
DGENRE=Jazz
TTITLE0=Zing Went The Strings of My Heart
TTITLE1=When Your Lover Has Gone
TTITLE2=You're Drivin' Me Crazy 
TTITLE3=Deep River
TTITLE4=Walking With The King
TTITLE5=What Child Is This
TTITLE6=Scat Free
TTITLE7=Glory of Love
TTITLE8=Joshua Hit The Battle of Jericho
TTITLE9=He's Funny That Way
TTITLE10=Meet Me Tonight In Dreamland
TTITLE11=Viidakon rytmit
TTITLE12=Second Hand Rose
TTITLE13=Nobody Knows The Trouble I've Seen
TTITLE14=Away In a Manger
TTITLE15=Santa Claus Blues
TTITLE16=Oh Thank You Merciful Lord
TTITLE17=There's a Broken Heart For Every Light
TTITLE18=Yes Sir, That's My Baby
EXTD=YEAR: 2009
EXTT0=
EXTT1=
EXTT2=
EXTT3=
EXTT4=
EXTT5=
EXTT6=
EXTT7=
EXTT8=
EXTT9=
EXTT10=
EXTT11=
EXTT12=
EXTT13=
EXTT14=
EXTT15=
EXTT16=
EXTT17=
EXTT18=
PLAYORDER=
